<mxfile host="Electron" agent="Mozilla/5.0 (Windows NT 10.0; Win64; x64) AppleWebKit/537.36 (KHTML, like Gecko) draw.io/25.0.2 Chrome/128.0.6613.186 Electron/32.2.5 Safari/537.36" version="25.0.2">
  <diagram name="Seite-1" id="dCrqSPuhNAjCOSTEXUXm">
    <mxGraphModel dx="7405" dy="7545" grid="1" gridSize="10" guides="1" tooltips="1" connect="1" arrows="1" fold="1" page="1" pageScale="4" pageWidth="827" pageHeight="1169" math="0" shadow="0">
      <root>
        <mxCell id="0" />
        <mxCell id="1" parent="0" />
        <mxCell id="9v7sRcI_gecO_6ktjUdz-57" value="" style="rounded=0;whiteSpace=wrap;html=1;" vertex="1" parent="1">
          <mxGeometry x="-40" y="-632" width="2280" height="1790" as="geometry" />
        </mxCell>
        <mxCell id="wzubu8DYFGDBGsBULmZj-1" value="UserData" style="rounded=0;whiteSpace=wrap;html=1;" parent="1" vertex="1">
          <mxGeometry x="400" y="330" width="200" height="80" as="geometry" />
        </mxCell>
        <mxCell id="wzubu8DYFGDBGsBULmZj-142" style="edgeStyle=orthogonalEdgeStyle;rounded=0;orthogonalLoop=1;jettySize=auto;html=1;exitX=1;exitY=0.5;exitDx=0;exitDy=0;entryX=0;entryY=0.5;entryDx=0;entryDy=0;" parent="1" source="wzubu8DYFGDBGsBULmZj-7" target="wzubu8DYFGDBGsBULmZj-1" edge="1">
          <mxGeometry relative="1" as="geometry" />
        </mxCell>
        <mxCell id="wzubu8DYFGDBGsBULmZj-7" value="&lt;u&gt;UserId&lt;/u&gt;" style="ellipse;whiteSpace=wrap;html=1;" parent="1" vertex="1">
          <mxGeometry x="180" y="-117" width="130" height="60" as="geometry" />
        </mxCell>
        <mxCell id="wzubu8DYFGDBGsBULmZj-141" style="edgeStyle=orthogonalEdgeStyle;rounded=0;orthogonalLoop=1;jettySize=auto;html=1;exitX=1;exitY=0.5;exitDx=0;exitDy=0;entryX=0;entryY=0.5;entryDx=0;entryDy=0;" parent="1" source="wzubu8DYFGDBGsBULmZj-8" target="wzubu8DYFGDBGsBULmZj-1" edge="1">
          <mxGeometry relative="1" as="geometry" />
        </mxCell>
        <mxCell id="wzubu8DYFGDBGsBULmZj-8" value="FirstName" style="ellipse;whiteSpace=wrap;html=1;" parent="1" vertex="1">
          <mxGeometry x="180" y="-47" width="130" height="60" as="geometry" />
        </mxCell>
        <mxCell id="wzubu8DYFGDBGsBULmZj-140" style="edgeStyle=orthogonalEdgeStyle;rounded=0;orthogonalLoop=1;jettySize=auto;html=1;exitX=1;exitY=0.5;exitDx=0;exitDy=0;entryX=0;entryY=0.5;entryDx=0;entryDy=0;" parent="1" source="wzubu8DYFGDBGsBULmZj-9" target="wzubu8DYFGDBGsBULmZj-1" edge="1">
          <mxGeometry relative="1" as="geometry" />
        </mxCell>
        <mxCell id="wzubu8DYFGDBGsBULmZj-9" value="LastName" style="ellipse;whiteSpace=wrap;html=1;" parent="1" vertex="1">
          <mxGeometry x="180" y="23" width="130" height="60" as="geometry" />
        </mxCell>
        <mxCell id="wzubu8DYFGDBGsBULmZj-138" style="edgeStyle=orthogonalEdgeStyle;rounded=0;orthogonalLoop=1;jettySize=auto;html=1;exitX=1;exitY=0.5;exitDx=0;exitDy=0;entryX=0;entryY=0.5;entryDx=0;entryDy=0;" parent="1" source="wzubu8DYFGDBGsBULmZj-10" target="wzubu8DYFGDBGsBULmZj-1" edge="1">
          <mxGeometry relative="1" as="geometry" />
        </mxCell>
        <mxCell id="wzubu8DYFGDBGsBULmZj-10" value="Gender" style="ellipse;whiteSpace=wrap;html=1;" parent="1" vertex="1">
          <mxGeometry x="180" y="163" width="130" height="60" as="geometry" />
        </mxCell>
        <mxCell id="9v7sRcI_gecO_6ktjUdz-23" style="edgeStyle=orthogonalEdgeStyle;rounded=0;orthogonalLoop=1;jettySize=auto;html=1;exitX=1;exitY=0.5;exitDx=0;exitDy=0;entryX=0;entryY=0.5;entryDx=0;entryDy=0;" edge="1" parent="1" source="wzubu8DYFGDBGsBULmZj-11" target="wzubu8DYFGDBGsBULmZj-1">
          <mxGeometry relative="1" as="geometry" />
        </mxCell>
        <mxCell id="wzubu8DYFGDBGsBULmZj-11" value="Email" style="ellipse;whiteSpace=wrap;html=1;" parent="1" vertex="1">
          <mxGeometry x="180" y="93" width="130" height="60" as="geometry" />
        </mxCell>
        <mxCell id="wzubu8DYFGDBGsBULmZj-136" style="edgeStyle=orthogonalEdgeStyle;rounded=0;orthogonalLoop=1;jettySize=auto;html=1;exitX=1;exitY=0.5;exitDx=0;exitDy=0;entryX=0;entryY=0.5;entryDx=0;entryDy=0;" parent="1" source="wzubu8DYFGDBGsBULmZj-13" target="wzubu8DYFGDBGsBULmZj-1" edge="1">
          <mxGeometry relative="1" as="geometry" />
        </mxCell>
        <mxCell id="wzubu8DYFGDBGsBULmZj-13" value="Goal" style="ellipse;whiteSpace=wrap;html=1;" parent="1" vertex="1">
          <mxGeometry x="180" y="303" width="130" height="60" as="geometry" />
        </mxCell>
        <mxCell id="wzubu8DYFGDBGsBULmZj-137" style="edgeStyle=orthogonalEdgeStyle;rounded=0;orthogonalLoop=1;jettySize=auto;html=1;exitX=1;exitY=0.5;exitDx=0;exitDy=0;entryX=0;entryY=0.5;entryDx=0;entryDy=0;" parent="1" source="wzubu8DYFGDBGsBULmZj-14" target="wzubu8DYFGDBGsBULmZj-1" edge="1">
          <mxGeometry relative="1" as="geometry" />
        </mxCell>
        <mxCell id="wzubu8DYFGDBGsBULmZj-14" value="BirthDate" style="ellipse;whiteSpace=wrap;html=1;" parent="1" vertex="1">
          <mxGeometry x="180" y="233" width="130" height="60" as="geometry" />
        </mxCell>
        <mxCell id="9v7sRcI_gecO_6ktjUdz-20" style="edgeStyle=orthogonalEdgeStyle;rounded=0;orthogonalLoop=1;jettySize=auto;html=1;exitX=1;exitY=0.5;exitDx=0;exitDy=0;entryX=0;entryY=0.5;entryDx=0;entryDy=0;" edge="1" parent="1" source="wzubu8DYFGDBGsBULmZj-16" target="wzubu8DYFGDBGsBULmZj-1">
          <mxGeometry relative="1" as="geometry" />
        </mxCell>
        <mxCell id="wzubu8DYFGDBGsBULmZj-16" value="HealthDisab" style="ellipse;whiteSpace=wrap;html=1;" parent="1" vertex="1">
          <mxGeometry x="179.5" y="583" width="130" height="60" as="geometry" />
        </mxCell>
        <mxCell id="wzubu8DYFGDBGsBULmZj-132" style="edgeStyle=orthogonalEdgeStyle;rounded=0;orthogonalLoop=1;jettySize=auto;html=1;exitX=1;exitY=0.5;exitDx=0;exitDy=0;entryX=0;entryY=0.5;entryDx=0;entryDy=0;" parent="1" source="wzubu8DYFGDBGsBULmZj-17" target="wzubu8DYFGDBGsBULmZj-1" edge="1">
          <mxGeometry relative="1" as="geometry" />
        </mxCell>
        <mxCell id="wzubu8DYFGDBGsBULmZj-17" value="Medicaments" style="ellipse;whiteSpace=wrap;html=1;" parent="1" vertex="1">
          <mxGeometry x="180" y="653" width="130" height="60" as="geometry" />
        </mxCell>
        <mxCell id="wzubu8DYFGDBGsBULmZj-134" style="edgeStyle=orthogonalEdgeStyle;rounded=0;orthogonalLoop=1;jettySize=auto;html=1;exitX=1;exitY=0.5;exitDx=0;exitDy=0;entryX=0;entryY=0.5;entryDx=0;entryDy=0;" parent="1" source="wzubu8DYFGDBGsBULmZj-18" target="wzubu8DYFGDBGsBULmZj-1" edge="1">
          <mxGeometry relative="1" as="geometry" />
        </mxCell>
        <mxCell id="wzubu8DYFGDBGsBULmZj-18" value="Allergies" style="ellipse;whiteSpace=wrap;html=1;" parent="1" vertex="1">
          <mxGeometry x="180" y="723" width="130" height="60" as="geometry" />
        </mxCell>
        <mxCell id="9v7sRcI_gecO_6ktjUdz-22" style="edgeStyle=orthogonalEdgeStyle;rounded=0;orthogonalLoop=1;jettySize=auto;html=1;exitX=1;exitY=0.5;exitDx=0;exitDy=0;entryX=0;entryY=0.5;entryDx=0;entryDy=0;" edge="1" parent="1" source="wzubu8DYFGDBGsBULmZj-20" target="wzubu8DYFGDBGsBULmZj-1">
          <mxGeometry relative="1" as="geometry" />
        </mxCell>
        <mxCell id="wzubu8DYFGDBGsBULmZj-20" value="Height" style="ellipse;whiteSpace=wrap;html=1;" parent="1" vertex="1">
          <mxGeometry x="179.5" y="790" width="130" height="60" as="geometry" />
        </mxCell>
        <mxCell id="wzubu8DYFGDBGsBULmZj-144" style="edgeStyle=orthogonalEdgeStyle;rounded=0;orthogonalLoop=1;jettySize=auto;html=1;exitX=1;exitY=0.5;exitDx=0;exitDy=0;entryX=0;entryY=0.5;entryDx=0;entryDy=0;" parent="1" source="wzubu8DYFGDBGsBULmZj-23" edge="1" target="wzubu8DYFGDBGsBULmZj-1">
          <mxGeometry relative="1" as="geometry">
            <mxPoint x="450.3076923076924" y="-300" as="targetPoint" />
          </mxGeometry>
        </mxCell>
        <mxCell id="wzubu8DYFGDBGsBULmZj-23" value="Sessionkey" style="ellipse;whiteSpace=wrap;html=1;" parent="1" vertex="1">
          <mxGeometry x="179.5" y="930" width="130" height="60" as="geometry" />
        </mxCell>
        <mxCell id="wzubu8DYFGDBGsBULmZj-26" value="Meal" style="rounded=0;whiteSpace=wrap;html=1;" parent="1" vertex="1">
          <mxGeometry x="1030" y="-79" width="200" height="80" as="geometry" />
        </mxCell>
        <mxCell id="wzubu8DYFGDBGsBULmZj-146" style="edgeStyle=orthogonalEdgeStyle;rounded=0;orthogonalLoop=1;jettySize=auto;html=1;exitX=0;exitY=0.5;exitDx=0;exitDy=0;entryX=1;entryY=0.5;entryDx=0;entryDy=0;" parent="1" source="wzubu8DYFGDBGsBULmZj-27" target="wzubu8DYFGDBGsBULmZj-26" edge="1">
          <mxGeometry relative="1" as="geometry" />
        </mxCell>
        <mxCell id="wzubu8DYFGDBGsBULmZj-27" value="&lt;u&gt;NutritionId&lt;/u&gt;" style="ellipse;whiteSpace=wrap;html=1;" parent="1" vertex="1">
          <mxGeometry x="1320" y="-410" width="130" height="60" as="geometry" />
        </mxCell>
        <mxCell id="wzubu8DYFGDBGsBULmZj-147" style="edgeStyle=orthogonalEdgeStyle;rounded=0;orthogonalLoop=1;jettySize=auto;html=1;exitX=0;exitY=0.5;exitDx=0;exitDy=0;entryX=1;entryY=0.5;entryDx=0;entryDy=0;" parent="1" source="wzubu8DYFGDBGsBULmZj-28" target="wzubu8DYFGDBGsBULmZj-26" edge="1">
          <mxGeometry relative="1" as="geometry" />
        </mxCell>
        <mxCell id="wzubu8DYFGDBGsBULmZj-28" value="Name" style="ellipse;whiteSpace=wrap;html=1;" parent="1" vertex="1">
          <mxGeometry x="1321" y="-340" width="130" height="60" as="geometry" />
        </mxCell>
        <mxCell id="wzubu8DYFGDBGsBULmZj-29" value="calories" style="ellipse;whiteSpace=wrap;html=1;" parent="1" vertex="1">
          <mxGeometry x="1321" y="-270" width="130" height="60" as="geometry" />
        </mxCell>
        <mxCell id="9v7sRcI_gecO_6ktjUdz-27" style="edgeStyle=orthogonalEdgeStyle;rounded=0;orthogonalLoop=1;jettySize=auto;html=1;exitX=0;exitY=0.5;exitDx=0;exitDy=0;entryX=1;entryY=0.5;entryDx=0;entryDy=0;" edge="1" parent="1" source="wzubu8DYFGDBGsBULmZj-30" target="wzubu8DYFGDBGsBULmZj-26">
          <mxGeometry relative="1" as="geometry" />
        </mxCell>
        <mxCell id="wzubu8DYFGDBGsBULmZj-30" value="Protein" style="ellipse;whiteSpace=wrap;html=1;" parent="1" vertex="1">
          <mxGeometry x="1321" y="-200" width="130" height="60" as="geometry" />
        </mxCell>
        <mxCell id="wzubu8DYFGDBGsBULmZj-151" style="edgeStyle=orthogonalEdgeStyle;rounded=0;orthogonalLoop=1;jettySize=auto;html=1;exitX=0;exitY=0.5;exitDx=0;exitDy=0;" parent="1" source="wzubu8DYFGDBGsBULmZj-31" target="wzubu8DYFGDBGsBULmZj-26" edge="1">
          <mxGeometry relative="1" as="geometry" />
        </mxCell>
        <mxCell id="wzubu8DYFGDBGsBULmZj-31" value="Fat" style="ellipse;whiteSpace=wrap;html=1;" parent="1" vertex="1">
          <mxGeometry x="1321" y="-127" width="130" height="60" as="geometry" />
        </mxCell>
        <mxCell id="wzubu8DYFGDBGsBULmZj-152" style="edgeStyle=orthogonalEdgeStyle;rounded=0;orthogonalLoop=1;jettySize=auto;html=1;exitX=0;exitY=0.5;exitDx=0;exitDy=0;entryX=1;entryY=0.5;entryDx=0;entryDy=0;" parent="1" source="wzubu8DYFGDBGsBULmZj-32" target="wzubu8DYFGDBGsBULmZj-26" edge="1">
          <mxGeometry relative="1" as="geometry">
            <mxPoint x="1249.9999999999998" y="-9" as="targetPoint" />
          </mxGeometry>
        </mxCell>
        <mxCell id="wzubu8DYFGDBGsBULmZj-32" value="carbohydrates" style="ellipse;whiteSpace=wrap;html=1;" parent="1" vertex="1">
          <mxGeometry x="1321" y="-57" width="130" height="60" as="geometry" />
        </mxCell>
        <mxCell id="wzubu8DYFGDBGsBULmZj-153" style="edgeStyle=orthogonalEdgeStyle;rounded=0;orthogonalLoop=1;jettySize=auto;html=1;exitX=0;exitY=0.5;exitDx=0;exitDy=0;entryX=1;entryY=0.5;entryDx=0;entryDy=0;" parent="1" source="wzubu8DYFGDBGsBULmZj-33" target="wzubu8DYFGDBGsBULmZj-26" edge="1">
          <mxGeometry relative="1" as="geometry" />
        </mxCell>
        <mxCell id="wzubu8DYFGDBGsBULmZj-33" value="fiber" style="ellipse;whiteSpace=wrap;html=1;" parent="1" vertex="1">
          <mxGeometry x="1321" y="13" width="130" height="60" as="geometry" />
        </mxCell>
        <mxCell id="wzubu8DYFGDBGsBULmZj-154" style="edgeStyle=orthogonalEdgeStyle;rounded=0;orthogonalLoop=1;jettySize=auto;html=1;exitX=0;exitY=0;exitDx=0;exitDy=0;entryX=1;entryY=0.5;entryDx=0;entryDy=0;" parent="1" source="wzubu8DYFGDBGsBULmZj-34" target="wzubu8DYFGDBGsBULmZj-26" edge="1">
          <mxGeometry relative="1" as="geometry" />
        </mxCell>
        <mxCell id="wzubu8DYFGDBGsBULmZj-34" value="Sugar" style="ellipse;whiteSpace=wrap;html=1;" parent="1" vertex="1">
          <mxGeometry x="1321" y="83" width="130" height="60" as="geometry" />
        </mxCell>
        <mxCell id="wzubu8DYFGDBGsBULmZj-155" style="edgeStyle=orthogonalEdgeStyle;rounded=0;orthogonalLoop=1;jettySize=auto;html=1;exitX=0;exitY=0.5;exitDx=0;exitDy=0;entryX=1;entryY=0.5;entryDx=0;entryDy=0;" parent="1" source="wzubu8DYFGDBGsBULmZj-35" target="wzubu8DYFGDBGsBULmZj-26" edge="1">
          <mxGeometry relative="1" as="geometry" />
        </mxCell>
        <mxCell id="wzubu8DYFGDBGsBULmZj-35" value="ServingSize" style="ellipse;whiteSpace=wrap;html=1;" parent="1" vertex="1">
          <mxGeometry x="1320" y="153" width="130" height="60" as="geometry" />
        </mxCell>
        <mxCell id="wzubu8DYFGDBGsBULmZj-156" style="edgeStyle=orthogonalEdgeStyle;rounded=0;orthogonalLoop=1;jettySize=auto;html=1;exitX=0;exitY=0.5;exitDx=0;exitDy=0;entryX=1;entryY=0.5;entryDx=0;entryDy=0;" parent="1" source="wzubu8DYFGDBGsBULmZj-36" target="wzubu8DYFGDBGsBULmZj-26" edge="1">
          <mxGeometry relative="1" as="geometry" />
        </mxCell>
        <mxCell id="wzubu8DYFGDBGsBULmZj-36" value="CreateDate" style="ellipse;whiteSpace=wrap;html=1;" parent="1" vertex="1">
          <mxGeometry x="1320" y="223" width="130" height="60" as="geometry" />
        </mxCell>
        <mxCell id="wzubu8DYFGDBGsBULmZj-38" value="Start" style="rounded=0;whiteSpace=wrap;html=1;fillColor=#6d8764;fontColor=#ffffff;strokeColor=#3A5431;" parent="1" vertex="1">
          <mxGeometry x="60" y="-1690" width="120" height="60" as="geometry" />
        </mxCell>
        <mxCell id="wzubu8DYFGDBGsBULmZj-43" value="Enter UserData" style="ellipse;whiteSpace=wrap;html=1;fillColor=#a0522d;strokeColor=#6D1F00;fontColor=#ffffff;" parent="1" vertex="1">
          <mxGeometry x="60" y="-1280" width="120" height="80" as="geometry" />
        </mxCell>
        <mxCell id="wzubu8DYFGDBGsBULmZj-44" value="Enter FitnessData" style="ellipse;whiteSpace=wrap;html=1;fillColor=#a0522d;strokeColor=#6D1F00;fontColor=#ffffff;" parent="1" vertex="1">
          <mxGeometry x="60" y="-1180" width="120" height="80" as="geometry" />
        </mxCell>
        <mxCell id="wzubu8DYFGDBGsBULmZj-45" value="Enter NutritionData" style="ellipse;whiteSpace=wrap;html=1;fillColor=#a0522d;strokeColor=#6D1F00;fontColor=#ffffff;" parent="1" vertex="1">
          <mxGeometry x="60" y="-1080" width="120" height="80" as="geometry" />
        </mxCell>
        <mxCell id="wzubu8DYFGDBGsBULmZj-47" value="" style="endArrow=classic;html=1;rounded=0;entryX=0.5;entryY=0;entryDx=0;entryDy=0;exitX=0.5;exitY=1;exitDx=0;exitDy=0;" parent="1" source="wzubu8DYFGDBGsBULmZj-55" target="wzubu8DYFGDBGsBULmZj-71" edge="1">
          <mxGeometry width="50" height="50" relative="1" as="geometry">
            <mxPoint x="230" y="-1350" as="sourcePoint" />
            <mxPoint x="120" y="-1310" as="targetPoint" />
          </mxGeometry>
        </mxCell>
        <mxCell id="wzubu8DYFGDBGsBULmZj-48" value="" style="endArrow=classic;html=1;rounded=0;entryX=0.5;entryY=0;entryDx=0;entryDy=0;exitX=0.5;exitY=1;exitDx=0;exitDy=0;" parent="1" source="wzubu8DYFGDBGsBULmZj-43" target="wzubu8DYFGDBGsBULmZj-44" edge="1">
          <mxGeometry width="50" height="50" relative="1" as="geometry">
            <mxPoint x="230" y="-1260" as="sourcePoint" />
            <mxPoint x="230" y="-1110" as="targetPoint" />
          </mxGeometry>
        </mxCell>
        <mxCell id="wzubu8DYFGDBGsBULmZj-49" value="" style="endArrow=classic;html=1;rounded=0;entryX=0;entryY=0.5;entryDx=0;entryDy=0;exitX=1;exitY=0.5;exitDx=0;exitDy=0;" parent="1" source="wzubu8DYFGDBGsBULmZj-55" target="wzubu8DYFGDBGsBULmZj-69" edge="1">
          <mxGeometry width="50" height="50" relative="1" as="geometry">
            <mxPoint x="280" y="-1440" as="sourcePoint" />
            <mxPoint x="385" y="-1490" as="targetPoint" />
          </mxGeometry>
        </mxCell>
        <mxCell id="wzubu8DYFGDBGsBULmZj-50" value="" style="endArrow=classic;html=1;rounded=0;entryX=0.5;entryY=0;entryDx=0;entryDy=0;exitX=0.5;exitY=1;exitDx=0;exitDy=0;" parent="1" source="wzubu8DYFGDBGsBULmZj-71" target="wzubu8DYFGDBGsBULmZj-43" edge="1">
          <mxGeometry width="50" height="50" relative="1" as="geometry">
            <mxPoint x="120" y="-1310" as="sourcePoint" />
            <mxPoint x="280" y="-1350" as="targetPoint" />
          </mxGeometry>
        </mxCell>
        <mxCell id="wzubu8DYFGDBGsBULmZj-51" value="" style="endArrow=classic;html=1;rounded=0;entryX=0.5;entryY=0;entryDx=0;entryDy=0;exitX=0.5;exitY=1;exitDx=0;exitDy=0;" parent="1" source="wzubu8DYFGDBGsBULmZj-44" target="wzubu8DYFGDBGsBULmZj-45" edge="1">
          <mxGeometry width="50" height="50" relative="1" as="geometry">
            <mxPoint x="130" y="-1190" as="sourcePoint" />
            <mxPoint x="130" y="-1170" as="targetPoint" />
          </mxGeometry>
        </mxCell>
        <mxCell id="wzubu8DYFGDBGsBULmZj-52" value="" style="endArrow=classic;html=1;rounded=0;exitX=0.5;exitY=1;exitDx=0;exitDy=0;entryX=0.5;entryY=1;entryDx=0;entryDy=0;" parent="1" source="wzubu8DYFGDBGsBULmZj-45" target="wzubu8DYFGDBGsBULmZj-69" edge="1">
          <mxGeometry width="50" height="50" relative="1" as="geometry">
            <mxPoint x="260" y="-1030" as="sourcePoint" />
            <mxPoint x="445" y="-1460" as="targetPoint" />
            <Array as="points">
              <mxPoint x="120" y="-950" />
              <mxPoint x="440" y="-950" />
            </Array>
          </mxGeometry>
        </mxCell>
        <mxCell id="wzubu8DYFGDBGsBULmZj-53" value="" style="endArrow=classic;html=1;rounded=0;exitX=1;exitY=0.5;exitDx=0;exitDy=0;entryX=0;entryY=0.5;entryDx=0;entryDy=0;" parent="1" source="wzubu8DYFGDBGsBULmZj-69" target="wzubu8DYFGDBGsBULmZj-54" edge="1">
          <mxGeometry width="50" height="50" relative="1" as="geometry">
            <mxPoint x="505" y="-1490" as="sourcePoint" />
            <mxPoint x="720" y="-1490" as="targetPoint" />
          </mxGeometry>
        </mxCell>
        <mxCell id="wzubu8DYFGDBGsBULmZj-73" style="edgeStyle=orthogonalEdgeStyle;rounded=0;orthogonalLoop=1;jettySize=auto;html=1;exitX=0.5;exitY=1;exitDx=0;exitDy=0;entryX=0.5;entryY=0;entryDx=0;entryDy=0;" parent="1" source="wzubu8DYFGDBGsBULmZj-54" target="wzubu8DYFGDBGsBULmZj-68" edge="1">
          <mxGeometry relative="1" as="geometry" />
        </mxCell>
        <mxCell id="wzubu8DYFGDBGsBULmZj-54" value="Dashboard" style="rounded=0;whiteSpace=wrap;html=1;fillColor=#76608a;fontColor=#ffffff;strokeColor=#432D57;" parent="1" vertex="1">
          <mxGeometry x="750" y="-1520" width="120" height="60" as="geometry" />
        </mxCell>
        <mxCell id="wzubu8DYFGDBGsBULmZj-55" value="Homepage" style="rounded=0;whiteSpace=wrap;html=1;fillColor=#76608a;fontColor=#ffffff;strokeColor=#432D57;" parent="1" vertex="1">
          <mxGeometry x="60" y="-1520" width="120" height="60" as="geometry" />
        </mxCell>
        <mxCell id="wzubu8DYFGDBGsBULmZj-56" value="" style="endArrow=classic;html=1;rounded=0;entryX=0.5;entryY=0;entryDx=0;entryDy=0;exitX=0.5;exitY=1;exitDx=0;exitDy=0;" parent="1" source="wzubu8DYFGDBGsBULmZj-38" target="wzubu8DYFGDBGsBULmZj-55" edge="1">
          <mxGeometry width="50" height="50" relative="1" as="geometry">
            <mxPoint x="190" y="-1480" as="sourcePoint" />
            <mxPoint x="395" y="-1480" as="targetPoint" />
          </mxGeometry>
        </mxCell>
        <mxCell id="wzubu8DYFGDBGsBULmZj-59" value="erstellt" style="rhombus;whiteSpace=wrap;html=1;" parent="1" vertex="1">
          <mxGeometry x="720" y="-79" width="160" height="80" as="geometry" />
        </mxCell>
        <mxCell id="wzubu8DYFGDBGsBULmZj-64" value="" style="endArrow=none;html=1;rounded=0;exitX=0.5;exitY=0;exitDx=0;exitDy=0;entryX=0;entryY=0.5;entryDx=0;entryDy=0;" parent="1" source="wzubu8DYFGDBGsBULmZj-1" target="wzubu8DYFGDBGsBULmZj-59" edge="1">
          <mxGeometry width="50" height="50" relative="1" as="geometry">
            <mxPoint x="550" y="-260" as="sourcePoint" />
            <mxPoint x="460" y="-210" as="targetPoint" />
            <Array as="points">
              <mxPoint x="500" y="-39" />
            </Array>
          </mxGeometry>
        </mxCell>
        <mxCell id="wzubu8DYFGDBGsBULmZj-87" value="&lt;font style=&quot;font-size: 20px;&quot;&gt;1&lt;/font&gt;" style="edgeLabel;html=1;align=center;verticalAlign=middle;resizable=0;points=[];" parent="wzubu8DYFGDBGsBULmZj-64" vertex="1" connectable="0">
          <mxGeometry x="-0.6071" y="2" relative="1" as="geometry">
            <mxPoint x="12" y="69" as="offset" />
          </mxGeometry>
        </mxCell>
        <mxCell id="wzubu8DYFGDBGsBULmZj-65" value="" style="endArrow=none;html=1;rounded=0;entryX=0;entryY=0.5;entryDx=0;entryDy=0;exitX=1;exitY=0.5;exitDx=0;exitDy=0;" parent="1" source="wzubu8DYFGDBGsBULmZj-59" target="wzubu8DYFGDBGsBULmZj-26" edge="1">
          <mxGeometry width="50" height="50" relative="1" as="geometry">
            <mxPoint x="900" y="61" as="sourcePoint" />
            <mxPoint x="730" y="-29" as="targetPoint" />
          </mxGeometry>
        </mxCell>
        <mxCell id="wzubu8DYFGDBGsBULmZj-86" value="&lt;font style=&quot;font-size: 20px;&quot;&gt;cn&lt;/font&gt;" style="edgeLabel;html=1;align=center;verticalAlign=middle;resizable=0;points=[];" parent="wzubu8DYFGDBGsBULmZj-65" vertex="1" connectable="0">
          <mxGeometry x="0.312" y="2" relative="1" as="geometry">
            <mxPoint y="-16" as="offset" />
          </mxGeometry>
        </mxCell>
        <mxCell id="wzubu8DYFGDBGsBULmZj-66" value="Informations" style="rounded=0;whiteSpace=wrap;html=1;fillColor=#76608a;fontColor=#ffffff;strokeColor=#432D57;" parent="1" vertex="1">
          <mxGeometry x="240" y="-1630" width="120" height="60" as="geometry" />
        </mxCell>
        <mxCell id="wzubu8DYFGDBGsBULmZj-67" value="" style="endArrow=classic;html=1;rounded=0;entryX=0;entryY=1;entryDx=0;entryDy=0;exitX=1;exitY=0;exitDx=0;exitDy=0;" parent="1" source="wzubu8DYFGDBGsBULmZj-55" target="wzubu8DYFGDBGsBULmZj-66" edge="1">
          <mxGeometry width="50" height="50" relative="1" as="geometry">
            <mxPoint x="270" y="-1350" as="sourcePoint" />
            <mxPoint x="320" y="-1400" as="targetPoint" />
          </mxGeometry>
        </mxCell>
        <mxCell id="wzubu8DYFGDBGsBULmZj-76" style="edgeStyle=orthogonalEdgeStyle;rounded=0;orthogonalLoop=1;jettySize=auto;html=1;exitX=0.5;exitY=1;exitDx=0;exitDy=0;entryX=0.5;entryY=0;entryDx=0;entryDy=0;" parent="1" source="wzubu8DYFGDBGsBULmZj-68" target="wzubu8DYFGDBGsBULmZj-74" edge="1">
          <mxGeometry relative="1" as="geometry" />
        </mxCell>
        <mxCell id="wzubu8DYFGDBGsBULmZj-68" value="New Meal" style="rounded=1;whiteSpace=wrap;html=1;fillColor=#fa6800;fontColor=#000000;strokeColor=#C73500;" parent="1" vertex="1">
          <mxGeometry x="750" y="-1310" width="120" height="60" as="geometry" />
        </mxCell>
        <mxCell id="wzubu8DYFGDBGsBULmZj-69" value="Login" style="rounded=1;whiteSpace=wrap;html=1;fillColor=#fa6800;fontColor=#000000;strokeColor=#C73500;" parent="1" vertex="1">
          <mxGeometry x="385" y="-1520" width="120" height="60" as="geometry" />
        </mxCell>
        <mxCell id="wzubu8DYFGDBGsBULmZj-71" value="Register" style="rounded=1;whiteSpace=wrap;html=1;fillColor=#fa6800;fontColor=#000000;strokeColor=#C73500;" parent="1" vertex="1">
          <mxGeometry x="60" y="-1370" width="120" height="60" as="geometry" />
        </mxCell>
        <mxCell id="wzubu8DYFGDBGsBULmZj-77" style="edgeStyle=orthogonalEdgeStyle;rounded=0;orthogonalLoop=1;jettySize=auto;html=1;exitX=0.5;exitY=1;exitDx=0;exitDy=0;entryX=0.5;entryY=0;entryDx=0;entryDy=0;" parent="1" source="wzubu8DYFGDBGsBULmZj-74" target="wzubu8DYFGDBGsBULmZj-75" edge="1">
          <mxGeometry relative="1" as="geometry" />
        </mxCell>
        <mxCell id="wzubu8DYFGDBGsBULmZj-74" value="Enter Meal" style="ellipse;whiteSpace=wrap;html=1;fillColor=#a0522d;strokeColor=#6D1F00;fontColor=#ffffff;" parent="1" vertex="1">
          <mxGeometry x="750" y="-1220" width="120" height="80" as="geometry" />
        </mxCell>
        <mxCell id="wzubu8DYFGDBGsBULmZj-78" style="edgeStyle=orthogonalEdgeStyle;rounded=0;orthogonalLoop=1;jettySize=auto;html=1;exitX=0.5;exitY=1;exitDx=0;exitDy=0;entryX=0;entryY=0.5;entryDx=0;entryDy=0;fillColor=#f5f5f5;strokeColor=#FAFAFA;" parent="1" source="wzubu8DYFGDBGsBULmZj-75" target="wzubu8DYFGDBGsBULmZj-54" edge="1">
          <mxGeometry relative="1" as="geometry">
            <mxPoint x="750" y="-1490" as="targetPoint" />
            <Array as="points">
              <mxPoint x="810" y="-1020" />
              <mxPoint x="600" y="-1020" />
              <mxPoint x="600" y="-1490" />
            </Array>
          </mxGeometry>
        </mxCell>
        <mxCell id="wzubu8DYFGDBGsBULmZj-75" value="Enter Meal_size..." style="ellipse;whiteSpace=wrap;html=1;fillColor=#a0522d;strokeColor=#6D1F00;fontColor=#ffffff;" parent="1" vertex="1">
          <mxGeometry x="750" y="-1120" width="120" height="80" as="geometry" />
        </mxCell>
        <mxCell id="wzubu8DYFGDBGsBULmZj-83" value="FitnessActivity" style="rounded=0;whiteSpace=wrap;html=1;" parent="1" vertex="1">
          <mxGeometry x="1060" y="740" width="200" height="80" as="geometry" />
        </mxCell>
        <mxCell id="wzubu8DYFGDBGsBULmZj-127" style="edgeStyle=orthogonalEdgeStyle;rounded=0;orthogonalLoop=1;jettySize=auto;html=1;exitX=0;exitY=0.5;exitDx=0;exitDy=0;entryX=1;entryY=0.5;entryDx=0;entryDy=0;" parent="1" source="wzubu8DYFGDBGsBULmZj-89" target="wzubu8DYFGDBGsBULmZj-83" edge="1">
          <mxGeometry relative="1" as="geometry" />
        </mxCell>
        <mxCell id="wzubu8DYFGDBGsBULmZj-89" value="&lt;font style=&quot;font-size: 13px;&quot;&gt;&lt;u&gt;FitnessActivityId&lt;/u&gt;&lt;/font&gt;" style="ellipse;whiteSpace=wrap;html=1;" parent="1" vertex="1">
          <mxGeometry x="1340" y="960" width="130" height="60" as="geometry" />
        </mxCell>
        <mxCell id="wzubu8DYFGDBGsBULmZj-126" style="edgeStyle=orthogonalEdgeStyle;rounded=0;orthogonalLoop=1;jettySize=auto;html=1;exitX=0;exitY=0.5;exitDx=0;exitDy=0;entryX=1;entryY=0.5;entryDx=0;entryDy=0;" parent="1" source="wzubu8DYFGDBGsBULmZj-90" target="wzubu8DYFGDBGsBULmZj-83" edge="1">
          <mxGeometry relative="1" as="geometry" />
        </mxCell>
        <mxCell id="wzubu8DYFGDBGsBULmZj-90" value="Category" style="ellipse;whiteSpace=wrap;html=1;" parent="1" vertex="1">
          <mxGeometry x="1340" y="890" width="130" height="60" as="geometry" />
        </mxCell>
        <mxCell id="wzubu8DYFGDBGsBULmZj-125" style="edgeStyle=orthogonalEdgeStyle;rounded=0;orthogonalLoop=1;jettySize=auto;html=1;exitX=0;exitY=0.5;exitDx=0;exitDy=0;entryX=1;entryY=0.5;entryDx=0;entryDy=0;" parent="1" source="wzubu8DYFGDBGsBULmZj-91" target="wzubu8DYFGDBGsBULmZj-83" edge="1">
          <mxGeometry relative="1" as="geometry" />
        </mxCell>
        <mxCell id="wzubu8DYFGDBGsBULmZj-91" value="Duration" style="ellipse;whiteSpace=wrap;html=1;" parent="1" vertex="1">
          <mxGeometry x="1340" y="820" width="130" height="60" as="geometry" />
        </mxCell>
        <mxCell id="wzubu8DYFGDBGsBULmZj-124" style="edgeStyle=orthogonalEdgeStyle;rounded=0;orthogonalLoop=1;jettySize=auto;html=1;exitX=0;exitY=0;exitDx=0;exitDy=0;entryX=1;entryY=0.5;entryDx=0;entryDy=0;" parent="1" source="wzubu8DYFGDBGsBULmZj-92" target="wzubu8DYFGDBGsBULmZj-83" edge="1">
          <mxGeometry relative="1" as="geometry" />
        </mxCell>
        <mxCell id="wzubu8DYFGDBGsBULmZj-92" value="Steps" style="ellipse;whiteSpace=wrap;html=1;" parent="1" vertex="1">
          <mxGeometry x="1340" y="680" width="130" height="60" as="geometry" />
        </mxCell>
        <mxCell id="wzubu8DYFGDBGsBULmZj-123" style="edgeStyle=orthogonalEdgeStyle;rounded=0;orthogonalLoop=1;jettySize=auto;html=1;exitX=0;exitY=0.5;exitDx=0;exitDy=0;entryX=1;entryY=0.5;entryDx=0;entryDy=0;" parent="1" source="wzubu8DYFGDBGsBULmZj-93" target="wzubu8DYFGDBGsBULmZj-83" edge="1">
          <mxGeometry relative="1" as="geometry" />
        </mxCell>
        <mxCell id="wzubu8DYFGDBGsBULmZj-93" value="Muscle" style="ellipse;whiteSpace=wrap;html=1;" parent="1" vertex="1">
          <mxGeometry x="1340" y="610" width="130" height="60" as="geometry" />
        </mxCell>
        <mxCell id="wzubu8DYFGDBGsBULmZj-94" value="erstellt" style="rhombus;whiteSpace=wrap;html=1;" parent="1" vertex="1">
          <mxGeometry x="610" y="740" width="160" height="80" as="geometry" />
        </mxCell>
        <mxCell id="wzubu8DYFGDBGsBULmZj-95" value="" style="endArrow=none;html=1;rounded=0;entryX=0;entryY=0.5;entryDx=0;entryDy=0;exitX=0.5;exitY=1;exitDx=0;exitDy=0;" parent="1" source="wzubu8DYFGDBGsBULmZj-1" target="wzubu8DYFGDBGsBULmZj-94" edge="1">
          <mxGeometry width="50" height="50" relative="1" as="geometry">
            <mxPoint x="534" y="780" as="sourcePoint" />
            <mxPoint x="582" y="905" as="targetPoint" />
            <Array as="points">
              <mxPoint x="500" y="780" />
            </Array>
          </mxGeometry>
        </mxCell>
        <mxCell id="wzubu8DYFGDBGsBULmZj-96" value="&lt;font style=&quot;font-size: 20px;&quot;&gt;1&lt;/font&gt;" style="edgeLabel;html=1;align=center;verticalAlign=middle;resizable=0;points=[];" parent="wzubu8DYFGDBGsBULmZj-95" vertex="1" connectable="0">
          <mxGeometry x="-0.6071" y="2" relative="1" as="geometry">
            <mxPoint x="8" y="-16" as="offset" />
          </mxGeometry>
        </mxCell>
        <mxCell id="wzubu8DYFGDBGsBULmZj-97" value="" style="endArrow=none;html=1;rounded=0;entryX=0;entryY=0.5;entryDx=0;entryDy=0;exitX=1;exitY=0.5;exitDx=0;exitDy=0;" parent="1" source="wzubu8DYFGDBGsBULmZj-94" target="wzubu8DYFGDBGsBULmZj-83" edge="1">
          <mxGeometry width="50" height="50" relative="1" as="geometry">
            <mxPoint x="838" y="955" as="sourcePoint" />
            <mxPoint x="968" y="855" as="targetPoint" />
          </mxGeometry>
        </mxCell>
        <mxCell id="wzubu8DYFGDBGsBULmZj-98" value="&lt;font style=&quot;font-size: 20px;&quot;&gt;cn&lt;/font&gt;" style="edgeLabel;html=1;align=center;verticalAlign=middle;resizable=0;points=[];" parent="wzubu8DYFGDBGsBULmZj-97" vertex="1" connectable="0">
          <mxGeometry x="0.312" y="2" relative="1" as="geometry">
            <mxPoint x="50" y="-16" as="offset" />
          </mxGeometry>
        </mxCell>
        <mxCell id="wzubu8DYFGDBGsBULmZj-122" style="edgeStyle=orthogonalEdgeStyle;rounded=0;orthogonalLoop=1;jettySize=auto;html=1;exitX=0;exitY=0.5;exitDx=0;exitDy=0;entryX=1;entryY=0.5;entryDx=0;entryDy=0;" parent="1" source="wzubu8DYFGDBGsBULmZj-99" target="wzubu8DYFGDBGsBULmZj-83" edge="1">
          <mxGeometry relative="1" as="geometry" />
        </mxCell>
        <mxCell id="wzubu8DYFGDBGsBULmZj-99" value="Intensity" style="ellipse;whiteSpace=wrap;html=1;" parent="1" vertex="1">
          <mxGeometry x="1340" y="540" width="130" height="60" as="geometry" />
        </mxCell>
        <mxCell id="wzubu8DYFGDBGsBULmZj-110" style="edgeStyle=orthogonalEdgeStyle;rounded=0;orthogonalLoop=1;jettySize=auto;html=1;exitX=0.5;exitY=0;exitDx=0;exitDy=0;entryX=0.5;entryY=1;entryDx=0;entryDy=0;" parent="1" source="wzubu8DYFGDBGsBULmZj-104" target="wzubu8DYFGDBGsBULmZj-108" edge="1">
          <mxGeometry relative="1" as="geometry" />
        </mxCell>
        <mxCell id="wzubu8DYFGDBGsBULmZj-104" value="New Activity" style="rounded=1;whiteSpace=wrap;html=1;fillColor=#fa6800;fontColor=#000000;strokeColor=#C73500;" parent="1" vertex="1">
          <mxGeometry x="750" y="-1650" width="120" height="60" as="geometry" />
        </mxCell>
        <mxCell id="wzubu8DYFGDBGsBULmZj-112" style="edgeStyle=orthogonalEdgeStyle;rounded=0;orthogonalLoop=1;jettySize=auto;html=1;exitX=0.5;exitY=0;exitDx=0;exitDy=0;entryX=0;entryY=0.5;entryDx=0;entryDy=0;" parent="1" source="wzubu8DYFGDBGsBULmZj-106" target="wzubu8DYFGDBGsBULmZj-54" edge="1">
          <mxGeometry relative="1" as="geometry">
            <Array as="points">
              <mxPoint x="810" y="-1900" />
              <mxPoint x="600" y="-1900" />
              <mxPoint x="600" y="-1490" />
            </Array>
          </mxGeometry>
        </mxCell>
        <mxCell id="wzubu8DYFGDBGsBULmZj-106" value="Enter Time, Muscle ..." style="ellipse;whiteSpace=wrap;html=1;fillColor=#a0522d;strokeColor=#6D1F00;fontColor=#ffffff;" parent="1" vertex="1">
          <mxGeometry x="750" y="-1880" width="120" height="80" as="geometry" />
        </mxCell>
        <mxCell id="wzubu8DYFGDBGsBULmZj-111" style="edgeStyle=orthogonalEdgeStyle;rounded=0;orthogonalLoop=1;jettySize=auto;html=1;exitX=0.5;exitY=0;exitDx=0;exitDy=0;entryX=0.5;entryY=1;entryDx=0;entryDy=0;" parent="1" source="wzubu8DYFGDBGsBULmZj-108" target="wzubu8DYFGDBGsBULmZj-106" edge="1">
          <mxGeometry relative="1" as="geometry" />
        </mxCell>
        <mxCell id="wzubu8DYFGDBGsBULmZj-108" value="Enter Category" style="ellipse;whiteSpace=wrap;html=1;fillColor=#a0522d;strokeColor=#6D1F00;fontColor=#ffffff;" parent="1" vertex="1">
          <mxGeometry x="750" y="-1770" width="120" height="80" as="geometry" />
        </mxCell>
        <mxCell id="wzubu8DYFGDBGsBULmZj-109" style="edgeStyle=orthogonalEdgeStyle;rounded=0;orthogonalLoop=1;jettySize=auto;html=1;exitX=0.5;exitY=0;exitDx=0;exitDy=0;entryX=0.5;entryY=1;entryDx=0;entryDy=0;" parent="1" source="wzubu8DYFGDBGsBULmZj-54" target="wzubu8DYFGDBGsBULmZj-104" edge="1">
          <mxGeometry relative="1" as="geometry" />
        </mxCell>
        <mxCell id="wzubu8DYFGDBGsBULmZj-114" value="Meals" style="rounded=0;whiteSpace=wrap;html=1;fillColor=#76608a;strokeColor=#432D57;fontColor=#ffffff;" parent="1" vertex="1">
          <mxGeometry x="970" y="-1620" width="120" height="60" as="geometry" />
        </mxCell>
        <mxCell id="wzubu8DYFGDBGsBULmZj-115" value="" style="endArrow=classic;startArrow=classic;html=1;rounded=0;entryX=1;entryY=0.5;entryDx=0;entryDy=0;exitX=0;exitY=0.5;exitDx=0;exitDy=0;" parent="1" source="wzubu8DYFGDBGsBULmZj-114" target="wzubu8DYFGDBGsBULmZj-54" edge="1">
          <mxGeometry width="50" height="50" relative="1" as="geometry">
            <mxPoint x="1000" y="-1360" as="sourcePoint" />
            <mxPoint x="1050" y="-1410" as="targetPoint" />
          </mxGeometry>
        </mxCell>
        <mxCell id="wzubu8DYFGDBGsBULmZj-120" value="NewMeal" style="rounded=0;whiteSpace=wrap;html=1;fillColor=#76608a;strokeColor=#432D57;fontColor=#ffffff;" parent="1" vertex="1">
          <mxGeometry x="970" y="-1340" width="120" height="60" as="geometry" />
        </mxCell>
        <mxCell id="wzubu8DYFGDBGsBULmZj-121" value="" style="endArrow=classic;startArrow=classic;html=1;rounded=0;entryX=1;entryY=0.5;entryDx=0;entryDy=0;exitX=0;exitY=0.5;exitDx=0;exitDy=0;" parent="1" source="wzubu8DYFGDBGsBULmZj-120" target="wzubu8DYFGDBGsBULmZj-54" edge="1">
          <mxGeometry width="50" height="50" relative="1" as="geometry">
            <mxPoint x="1030" y="-1160" as="sourcePoint" />
            <mxPoint x="900" y="-1320" as="targetPoint" />
          </mxGeometry>
        </mxCell>
        <mxCell id="wzubu8DYFGDBGsBULmZj-148" style="edgeStyle=orthogonalEdgeStyle;rounded=0;orthogonalLoop=1;jettySize=auto;html=1;exitX=0;exitY=0.5;exitDx=0;exitDy=0;entryX=1;entryY=0.5;entryDx=0;entryDy=0;" parent="1" source="wzubu8DYFGDBGsBULmZj-29" edge="1" target="wzubu8DYFGDBGsBULmZj-26">
          <mxGeometry relative="1" as="geometry">
            <mxPoint x="1130" y="-79" as="targetPoint" />
          </mxGeometry>
        </mxCell>
        <mxCell id="9v7sRcI_gecO_6ktjUdz-1" value="NFA" style="rounded=0;whiteSpace=wrap;html=1;fillColor=#76608a;strokeColor=#432D57;fontColor=#ffffff;" vertex="1" parent="1">
          <mxGeometry x="970" y="-1410" width="120" height="60" as="geometry" />
        </mxCell>
        <mxCell id="9v7sRcI_gecO_6ktjUdz-2" value="" style="endArrow=classic;startArrow=classic;html=1;rounded=0;exitX=0;exitY=0.5;exitDx=0;exitDy=0;entryX=1;entryY=0.5;entryDx=0;entryDy=0;" edge="1" parent="1" source="9v7sRcI_gecO_6ktjUdz-1" target="wzubu8DYFGDBGsBULmZj-54">
          <mxGeometry width="50" height="50" relative="1" as="geometry">
            <mxPoint x="1050" y="-1220" as="sourcePoint" />
            <mxPoint x="900" y="-1490" as="targetPoint" />
          </mxGeometry>
        </mxCell>
        <mxCell id="9v7sRcI_gecO_6ktjUdz-3" value="Fitness" style="rounded=0;whiteSpace=wrap;html=1;fillColor=#76608a;strokeColor=#432D57;fontColor=#ffffff;" vertex="1" parent="1">
          <mxGeometry x="970" y="-1550" width="120" height="60" as="geometry" />
        </mxCell>
        <mxCell id="9v7sRcI_gecO_6ktjUdz-4" value="" style="endArrow=classic;startArrow=classic;html=1;rounded=0;entryX=1;entryY=0.5;entryDx=0;entryDy=0;exitX=0;exitY=0.5;exitDx=0;exitDy=0;" edge="1" parent="1" source="9v7sRcI_gecO_6ktjUdz-3" target="wzubu8DYFGDBGsBULmZj-54">
          <mxGeometry width="50" height="50" relative="1" as="geometry">
            <mxPoint x="1010" y="-1350" as="sourcePoint" />
            <mxPoint x="880" y="-1510" as="targetPoint" />
          </mxGeometry>
        </mxCell>
        <mxCell id="9v7sRcI_gecO_6ktjUdz-5" value="Activitys" style="rounded=0;whiteSpace=wrap;html=1;fillColor=#76608a;strokeColor=#432D57;fontColor=#ffffff;" vertex="1" parent="1">
          <mxGeometry x="970" y="-1480" width="120" height="60" as="geometry" />
        </mxCell>
        <mxCell id="9v7sRcI_gecO_6ktjUdz-6" value="" style="endArrow=classic;startArrow=classic;html=1;rounded=0;entryX=1;entryY=0.5;entryDx=0;entryDy=0;exitX=0;exitY=0.5;exitDx=0;exitDy=0;" edge="1" parent="1" source="9v7sRcI_gecO_6ktjUdz-5" target="wzubu8DYFGDBGsBULmZj-54">
          <mxGeometry width="50" height="50" relative="1" as="geometry">
            <mxPoint x="1020" y="-1340" as="sourcePoint" />
            <mxPoint x="890" y="-1500" as="targetPoint" />
          </mxGeometry>
        </mxCell>
        <mxCell id="9v7sRcI_gecO_6ktjUdz-7" value="Details" style="rounded=0;whiteSpace=wrap;html=1;fillColor=#76608a;strokeColor=#432D57;fontColor=#ffffff;" vertex="1" parent="1">
          <mxGeometry x="1160" y="-1340" width="120" height="60" as="geometry" />
        </mxCell>
        <mxCell id="9v7sRcI_gecO_6ktjUdz-8" value="" style="endArrow=classic;startArrow=classic;html=1;rounded=0;entryX=1;entryY=0.5;entryDx=0;entryDy=0;exitX=0;exitY=0.5;exitDx=0;exitDy=0;" edge="1" parent="1" source="9v7sRcI_gecO_6ktjUdz-7" target="wzubu8DYFGDBGsBULmZj-120">
          <mxGeometry width="50" height="50" relative="1" as="geometry">
            <mxPoint x="1288" y="-1120" as="sourcePoint" />
            <mxPoint x="1080" y="-1290" as="targetPoint" />
          </mxGeometry>
        </mxCell>
        <mxCell id="9v7sRcI_gecO_6ktjUdz-9" value="Details" style="rounded=0;whiteSpace=wrap;html=1;fillColor=#76608a;strokeColor=#432D57;fontColor=#ffffff;" vertex="1" parent="1">
          <mxGeometry x="1160" y="-1410" width="120" height="60" as="geometry" />
        </mxCell>
        <mxCell id="9v7sRcI_gecO_6ktjUdz-10" value="" style="endArrow=classic;startArrow=classic;html=1;rounded=0;entryX=1;entryY=0.5;entryDx=0;entryDy=0;exitX=0;exitY=0.5;exitDx=0;exitDy=0;" edge="1" parent="1" source="9v7sRcI_gecO_6ktjUdz-9" target="9v7sRcI_gecO_6ktjUdz-1">
          <mxGeometry width="50" height="50" relative="1" as="geometry">
            <mxPoint x="1288" y="-1190" as="sourcePoint" />
            <mxPoint x="1090" y="-1380" as="targetPoint" />
          </mxGeometry>
        </mxCell>
        <mxCell id="9v7sRcI_gecO_6ktjUdz-11" value="Main" style="rounded=0;whiteSpace=wrap;html=1;fillColor=#76608a;strokeColor=#432D57;fontColor=#ffffff;" vertex="1" parent="1">
          <mxGeometry x="970" y="-1690" width="120" height="60" as="geometry" />
        </mxCell>
        <mxCell id="9v7sRcI_gecO_6ktjUdz-12" value="" style="endArrow=classic;startArrow=classic;html=1;rounded=0;entryX=1;entryY=0.5;entryDx=0;entryDy=0;exitX=0;exitY=0.5;exitDx=0;exitDy=0;" edge="1" parent="1" source="9v7sRcI_gecO_6ktjUdz-11" target="wzubu8DYFGDBGsBULmZj-54">
          <mxGeometry width="50" height="50" relative="1" as="geometry">
            <mxPoint x="1000" y="-1430" as="sourcePoint" />
            <mxPoint x="870" y="-1560" as="targetPoint" />
          </mxGeometry>
        </mxCell>
        <mxCell id="9v7sRcI_gecO_6ktjUdz-13" value="Details" style="rounded=0;whiteSpace=wrap;html=1;fillColor=#76608a;strokeColor=#432D57;fontColor=#ffffff;" vertex="1" parent="1">
          <mxGeometry x="1160" y="-1620" width="120" height="60" as="geometry" />
        </mxCell>
        <mxCell id="9v7sRcI_gecO_6ktjUdz-14" value="" style="endArrow=classic;startArrow=classic;html=1;rounded=0;entryX=1;entryY=0.5;entryDx=0;entryDy=0;exitX=0;exitY=0.5;exitDx=0;exitDy=0;" edge="1" parent="1" source="9v7sRcI_gecO_6ktjUdz-13" target="wzubu8DYFGDBGsBULmZj-114">
          <mxGeometry width="50" height="50" relative="1" as="geometry">
            <mxPoint x="1288" y="-1400" as="sourcePoint" />
            <mxPoint x="1090" y="-1590" as="targetPoint" />
          </mxGeometry>
        </mxCell>
        <mxCell id="9v7sRcI_gecO_6ktjUdz-15" style="edgeStyle=orthogonalEdgeStyle;rounded=0;orthogonalLoop=1;jettySize=auto;html=1;exitX=1;exitY=0.5;exitDx=0;exitDy=0;entryX=0;entryY=0.5;entryDx=0;entryDy=0;" edge="1" parent="1" source="9v7sRcI_gecO_6ktjUdz-16" target="wzubu8DYFGDBGsBULmZj-1">
          <mxGeometry relative="1" as="geometry">
            <mxPoint x="350" y="180" as="targetPoint" />
          </mxGeometry>
        </mxCell>
        <mxCell id="9v7sRcI_gecO_6ktjUdz-16" value="Password" style="ellipse;whiteSpace=wrap;html=1;" vertex="1" parent="1">
          <mxGeometry x="180" y="373" width="130" height="60" as="geometry" />
        </mxCell>
        <mxCell id="9v7sRcI_gecO_6ktjUdz-17" style="edgeStyle=orthogonalEdgeStyle;rounded=0;orthogonalLoop=1;jettySize=auto;html=1;exitX=1;exitY=0.5;exitDx=0;exitDy=0;entryX=0;entryY=0.5;entryDx=0;entryDy=0;" edge="1" parent="1" target="wzubu8DYFGDBGsBULmZj-1">
          <mxGeometry relative="1" as="geometry">
            <mxPoint x="349.47" y="170" as="targetPoint" />
            <mxPoint x="309.469999999998" y="462.9999999999991" as="sourcePoint" />
          </mxGeometry>
        </mxCell>
        <mxCell id="9v7sRcI_gecO_6ktjUdz-18" value="Weight" style="ellipse;whiteSpace=wrap;html=1;" vertex="1" parent="1">
          <mxGeometry x="179.5" y="443" width="130" height="60" as="geometry" />
        </mxCell>
        <mxCell id="9v7sRcI_gecO_6ktjUdz-21" style="edgeStyle=orthogonalEdgeStyle;rounded=0;orthogonalLoop=1;jettySize=auto;html=1;exitX=1;exitY=0.5;exitDx=0;exitDy=0;entryX=0;entryY=0.5;entryDx=0;entryDy=0;" edge="1" parent="1" source="9v7sRcI_gecO_6ktjUdz-19" target="wzubu8DYFGDBGsBULmZj-1">
          <mxGeometry relative="1" as="geometry" />
        </mxCell>
        <mxCell id="9v7sRcI_gecO_6ktjUdz-19" value="SportClass" style="ellipse;whiteSpace=wrap;html=1;" vertex="1" parent="1">
          <mxGeometry x="179.5" y="510" width="130" height="60" as="geometry" />
        </mxCell>
        <mxCell id="9v7sRcI_gecO_6ktjUdz-24" value="Diet" style="ellipse;whiteSpace=wrap;html=1;" vertex="1" parent="1">
          <mxGeometry x="180" y="860" width="130" height="60" as="geometry" />
        </mxCell>
        <mxCell id="9v7sRcI_gecO_6ktjUdz-26" style="edgeStyle=orthogonalEdgeStyle;rounded=0;orthogonalLoop=1;jettySize=auto;html=1;exitX=0;exitY=0.5;exitDx=0;exitDy=0;entryX=1;entryY=0.5;entryDx=0;entryDy=0;" edge="1" parent="1" source="9v7sRcI_gecO_6ktjUdz-25" target="wzubu8DYFGDBGsBULmZj-83">
          <mxGeometry relative="1" as="geometry" />
        </mxCell>
        <mxCell id="9v7sRcI_gecO_6ktjUdz-25" value="CreateDate" style="ellipse;whiteSpace=wrap;html=1;" vertex="1" parent="1">
          <mxGeometry x="1340" y="750" width="130" height="60" as="geometry" />
        </mxCell>
        <mxCell id="9v7sRcI_gecO_6ktjUdz-29" value="MentalFacts" style="rounded=0;whiteSpace=wrap;html=1;" vertex="1" parent="1">
          <mxGeometry x="1640" y="-80" width="200" height="80" as="geometry" />
        </mxCell>
        <mxCell id="9v7sRcI_gecO_6ktjUdz-34" style="edgeStyle=orthogonalEdgeStyle;rounded=0;orthogonalLoop=1;jettySize=auto;html=1;exitX=0;exitY=0.5;exitDx=0;exitDy=0;entryX=1;entryY=0.5;entryDx=0;entryDy=0;" edge="1" parent="1" source="9v7sRcI_gecO_6ktjUdz-30" target="9v7sRcI_gecO_6ktjUdz-29">
          <mxGeometry relative="1" as="geometry" />
        </mxCell>
        <mxCell id="9v7sRcI_gecO_6ktjUdz-30" value="&lt;u&gt;ID&lt;/u&gt;" style="ellipse;whiteSpace=wrap;html=1;" vertex="1" parent="1">
          <mxGeometry x="1900" y="-175" width="130" height="60" as="geometry" />
        </mxCell>
        <mxCell id="9v7sRcI_gecO_6ktjUdz-35" style="edgeStyle=orthogonalEdgeStyle;rounded=0;orthogonalLoop=1;jettySize=auto;html=1;exitX=0;exitY=0.5;exitDx=0;exitDy=0;entryX=1;entryY=0.5;entryDx=0;entryDy=0;" edge="1" parent="1" source="9v7sRcI_gecO_6ktjUdz-31" target="9v7sRcI_gecO_6ktjUdz-29">
          <mxGeometry relative="1" as="geometry" />
        </mxCell>
        <mxCell id="9v7sRcI_gecO_6ktjUdz-31" value="Title" style="ellipse;whiteSpace=wrap;html=1;" vertex="1" parent="1">
          <mxGeometry x="1901" y="-105" width="130" height="60" as="geometry" />
        </mxCell>
        <mxCell id="9v7sRcI_gecO_6ktjUdz-36" style="edgeStyle=orthogonalEdgeStyle;rounded=0;orthogonalLoop=1;jettySize=auto;html=1;exitX=0;exitY=0.5;exitDx=0;exitDy=0;entryX=1;entryY=0.5;entryDx=0;entryDy=0;" edge="1" parent="1" source="9v7sRcI_gecO_6ktjUdz-32" target="9v7sRcI_gecO_6ktjUdz-29">
          <mxGeometry relative="1" as="geometry" />
        </mxCell>
        <mxCell id="9v7sRcI_gecO_6ktjUdz-32" value="Content" style="ellipse;whiteSpace=wrap;html=1;" vertex="1" parent="1">
          <mxGeometry x="1901" y="-35" width="130" height="60" as="geometry" />
        </mxCell>
        <mxCell id="9v7sRcI_gecO_6ktjUdz-38" style="edgeStyle=orthogonalEdgeStyle;rounded=0;orthogonalLoop=1;jettySize=auto;html=1;exitX=0;exitY=0.5;exitDx=0;exitDy=0;entryX=1;entryY=0.5;entryDx=0;entryDy=0;" edge="1" parent="1" source="9v7sRcI_gecO_6ktjUdz-33" target="9v7sRcI_gecO_6ktjUdz-29">
          <mxGeometry relative="1" as="geometry" />
        </mxCell>
        <mxCell id="9v7sRcI_gecO_6ktjUdz-33" value="Autor" style="ellipse;whiteSpace=wrap;html=1;" vertex="1" parent="1">
          <mxGeometry x="1901" y="37" width="130" height="60" as="geometry" />
        </mxCell>
        <mxCell id="9v7sRcI_gecO_6ktjUdz-39" value="MentalFacts" style="rounded=0;whiteSpace=wrap;html=1;" vertex="1" parent="1">
          <mxGeometry x="1640" y="363" width="200" height="80" as="geometry" />
        </mxCell>
        <mxCell id="9v7sRcI_gecO_6ktjUdz-40" style="edgeStyle=orthogonalEdgeStyle;rounded=0;orthogonalLoop=1;jettySize=auto;html=1;exitX=0;exitY=0.5;exitDx=0;exitDy=0;entryX=1;entryY=0.5;entryDx=0;entryDy=0;" edge="1" parent="1" source="9v7sRcI_gecO_6ktjUdz-41" target="9v7sRcI_gecO_6ktjUdz-39">
          <mxGeometry relative="1" as="geometry" />
        </mxCell>
        <mxCell id="9v7sRcI_gecO_6ktjUdz-41" value="&lt;u&gt;MealName&lt;/u&gt;" style="ellipse;whiteSpace=wrap;html=1;" vertex="1" parent="1">
          <mxGeometry x="1899" y="127" width="130" height="60" as="geometry" />
        </mxCell>
        <mxCell id="9v7sRcI_gecO_6ktjUdz-42" style="edgeStyle=orthogonalEdgeStyle;rounded=0;orthogonalLoop=1;jettySize=auto;html=1;exitX=0;exitY=0.5;exitDx=0;exitDy=0;entryX=1;entryY=0.5;entryDx=0;entryDy=0;" edge="1" parent="1" source="9v7sRcI_gecO_6ktjUdz-43" target="9v7sRcI_gecO_6ktjUdz-39">
          <mxGeometry relative="1" as="geometry" />
        </mxCell>
        <mxCell id="9v7sRcI_gecO_6ktjUdz-43" value="Main Ingredient" style="ellipse;whiteSpace=wrap;html=1;" vertex="1" parent="1">
          <mxGeometry x="1900" y="197" width="130" height="60" as="geometry" />
        </mxCell>
        <mxCell id="9v7sRcI_gecO_6ktjUdz-44" style="edgeStyle=orthogonalEdgeStyle;rounded=0;orthogonalLoop=1;jettySize=auto;html=1;exitX=0;exitY=0.5;exitDx=0;exitDy=0;entryX=1;entryY=0.5;entryDx=0;entryDy=0;" edge="1" parent="1" source="9v7sRcI_gecO_6ktjUdz-45" target="9v7sRcI_gecO_6ktjUdz-39">
          <mxGeometry relative="1" as="geometry" />
        </mxCell>
        <mxCell id="9v7sRcI_gecO_6ktjUdz-45" value="Type" style="ellipse;whiteSpace=wrap;html=1;" vertex="1" parent="1">
          <mxGeometry x="1900" y="267" width="130" height="60" as="geometry" />
        </mxCell>
        <mxCell id="9v7sRcI_gecO_6ktjUdz-46" style="edgeStyle=orthogonalEdgeStyle;rounded=0;orthogonalLoop=1;jettySize=auto;html=1;exitX=0;exitY=0.5;exitDx=0;exitDy=0;entryX=1;entryY=0.5;entryDx=0;entryDy=0;" edge="1" parent="1" source="9v7sRcI_gecO_6ktjUdz-47" target="9v7sRcI_gecO_6ktjUdz-39">
          <mxGeometry relative="1" as="geometry" />
        </mxCell>
        <mxCell id="9v7sRcI_gecO_6ktjUdz-47" value="Cuisine" style="ellipse;whiteSpace=wrap;html=1;" vertex="1" parent="1">
          <mxGeometry x="1900" y="339" width="130" height="60" as="geometry" />
        </mxCell>
        <mxCell id="9v7sRcI_gecO_6ktjUdz-52" style="edgeStyle=orthogonalEdgeStyle;rounded=0;orthogonalLoop=1;jettySize=auto;html=1;exitX=0;exitY=0.5;exitDx=0;exitDy=0;entryX=1;entryY=0.5;entryDx=0;entryDy=0;" edge="1" parent="1" source="9v7sRcI_gecO_6ktjUdz-48" target="9v7sRcI_gecO_6ktjUdz-39">
          <mxGeometry relative="1" as="geometry" />
        </mxCell>
        <mxCell id="9v7sRcI_gecO_6ktjUdz-48" value="Protein" style="ellipse;whiteSpace=wrap;html=1;" vertex="1" parent="1">
          <mxGeometry x="1899" y="410" width="130" height="60" as="geometry" />
        </mxCell>
        <mxCell id="9v7sRcI_gecO_6ktjUdz-53" style="edgeStyle=orthogonalEdgeStyle;rounded=0;orthogonalLoop=1;jettySize=auto;html=1;exitX=0;exitY=0.5;exitDx=0;exitDy=0;entryX=1;entryY=0.5;entryDx=0;entryDy=0;" edge="1" parent="1" source="9v7sRcI_gecO_6ktjUdz-49" target="9v7sRcI_gecO_6ktjUdz-39">
          <mxGeometry relative="1" as="geometry" />
        </mxCell>
        <mxCell id="9v7sRcI_gecO_6ktjUdz-49" value="Fat" style="ellipse;whiteSpace=wrap;html=1;" vertex="1" parent="1">
          <mxGeometry x="1901" y="480" width="130" height="60" as="geometry" />
        </mxCell>
        <mxCell id="9v7sRcI_gecO_6ktjUdz-54" style="edgeStyle=orthogonalEdgeStyle;rounded=0;orthogonalLoop=1;jettySize=auto;html=1;exitX=0;exitY=0.5;exitDx=0;exitDy=0;entryX=1;entryY=0.5;entryDx=0;entryDy=0;" edge="1" parent="1" source="9v7sRcI_gecO_6ktjUdz-50" target="9v7sRcI_gecO_6ktjUdz-39">
          <mxGeometry relative="1" as="geometry" />
        </mxCell>
        <mxCell id="9v7sRcI_gecO_6ktjUdz-50" value="Diet Type" style="ellipse;whiteSpace=wrap;html=1;" vertex="1" parent="1">
          <mxGeometry x="1901" y="550" width="130" height="60" as="geometry" />
        </mxCell>
        <mxCell id="9v7sRcI_gecO_6ktjUdz-55" style="edgeStyle=orthogonalEdgeStyle;rounded=0;orthogonalLoop=1;jettySize=auto;html=1;exitX=0;exitY=0.5;exitDx=0;exitDy=0;entryX=1;entryY=0.5;entryDx=0;entryDy=0;" edge="1" parent="1" source="9v7sRcI_gecO_6ktjUdz-51" target="9v7sRcI_gecO_6ktjUdz-39">
          <mxGeometry relative="1" as="geometry" />
        </mxCell>
        <mxCell id="9v7sRcI_gecO_6ktjUdz-51" value="Interesting Info" style="ellipse;whiteSpace=wrap;html=1;" vertex="1" parent="1">
          <mxGeometry x="1901" y="620" width="130" height="60" as="geometry" />
        </mxCell>
        <mxCell id="9v7sRcI_gecO_6ktjUdz-58" value="ER-Diagramm&lt;div&gt;&lt;br&gt;&lt;/div&gt;" style="text;html=1;align=center;verticalAlign=middle;whiteSpace=wrap;rounded=0;fontSize=52;fontStyle=5" vertex="1" parent="1">
          <mxGeometry x="-250" y="-500" width="860" height="30" as="geometry" />
        </mxCell>
        <mxCell id="9v7sRcI_gecO_6ktjUdz-70" value="" style="shape=tableRow;horizontal=0;startSize=0;swimlaneHead=0;swimlaneBody=0;top=0;left=0;bottom=0;right=0;collapsible=0;dropTarget=0;fillColor=none;points=[[0,0.5],[1,0.5]];portConstraint=eastwest;strokeColor=inherit;fontSize=16;" vertex="1" parent="1">
          <mxGeometry x="2360" y="410" width="340" height="30" as="geometry" />
        </mxCell>
      </root>
    </mxGraphModel>
  </diagram>
</mxfile>
